<?xml version="1.0" encoding="UTF-8" standalone="no"?>
<!-- Created with Inkscape (http://www.inkscape.org/) -->

<svg
   width="300mm"
   height="300mm"
   viewBox="0 0 300 300"
   version="1.1"
   id="svg1"
   sodipodi:docname="6SVK.svg"
   inkscape:version="1.4 (86a8ad7, 2024-10-11)"
   xmlns:inkscape="http://www.inkscape.org/namespaces/inkscape"
   xmlns:sodipodi="http://sodipodi.sourceforge.net/DTD/sodipodi-0.dtd"
   xmlns="http://www.w3.org/2000/svg"
   xmlns:svg="http://www.w3.org/2000/svg">
  <sodipodi:namedview
     id="namedview1"
     pagecolor="#ffffff"
     bordercolor="#000000"
     borderopacity="0.25"
     inkscape:showpageshadow="2"
     inkscape:pageopacity="0.0"
     inkscape:pagecheckerboard="0"
     inkscape:deskcolor="#d1d1d1"
     inkscape:document-units="mm"
     inkscape:zoom="0.1859863"
     inkscape:cx="986.63184"
     inkscape:cy="1142.5573"
     inkscape:window-width="1536"
     inkscape:window-height="889"
     inkscape:window-x="-8"
     inkscape:window-y="304"
     inkscape:window-maximized="1"
     inkscape:current-layer="svg1"
     showgrid="false" />
  <defs
     id="defs1">
    <pattern
       patternUnits="userSpaceOnUse"
       width="1082.5513"
       height="394.79133"
       patternTransform="translate(25.653507,369.53346)"
       preserveAspectRatio="xMidYMid"
       id="pattern1" />
  </defs>
  <path
     d="m 25.873299,145.86588 q 4.685326,-5.58105 10.197474,-8.26822 5.512148,-2.68717 12.333431,-2.68717 6.545676,0 12.057824,2.48046 5.58105,2.41157 9.715161,6.95909 4.203013,4.47862 6.476774,10.61089 2.273762,6.13226 2.273762,12.81574 0,9.71516 -4.478621,17.63888 -4.409718,7.92371 -12.402333,12.40233 -7.923713,4.40972 -17.983383,4.40972 -11.575512,0 -19.981537,-5.64995 -8.406026,-5.64996 -12.884647,-16.67425 -4.4097182,-11.0932 -4.4097182,-27.07843 0,-13.02245 2.6871722,-23.28883 2.687172,-10.26637 7.717007,-17.01875 5.029836,-6.75239 12.195628,-10.19748 7.165793,-3.445091 16.329739,-3.445091 8.819437,0 15.502917,3.445091 6.752381,3.44509 10.128572,8.54383 3.445092,5.09874 3.445092,9.78406 0,2.82498 -2.135957,5.16764 -2.135957,2.27376 -5.443246,2.27376 -2.893878,0 -5.374345,-1.79144 -2.480466,-1.86035 -3.651798,-5.09874 -1.584742,-4.13411 -5.029835,-6.61458 -3.445093,-2.54937 -7.992615,-2.54937 -3.651798,0 -7.303596,2.13596 -3.582896,2.06706 -6.063363,5.64995 -5.029835,7.3036 -5.925559,26.0449 z m 18.6035,42.78805 q 6.959087,0 11.506609,-5.64995 4.547522,-5.71885 4.547522,-14.9517 0,-6.27007 -2.135957,-10.74869 -2.135958,-4.54752 -5.856658,-6.89019 -3.7207,-2.41156 -8.19932,-2.41156 -4.271915,0 -8.19932,2.27376 -3.858504,2.27376 -6.270069,6.61458 -2.342663,4.27191 -2.342663,10.05967 0,9.30175 4.82313,15.50292 4.823129,6.20116 12.126726,6.20116 z M 145.48693,170.18824 q 0,9.16394 -4.75423,16.46754 -4.68533,7.30359 -13.78037,11.43771 -9.09505,4.13411 -21.56628,4.13411 -14.951703,0 -24.666864,-5.64995 -6.890185,-4.06521 -11.231002,-10.8176 -4.271914,-6.82128 -4.271914,-13.22915 0,-3.7207 2.549368,-6.33897 2.61827,-2.68717 6.614578,-2.68717 3.238387,0 5.443246,2.06705 2.273761,2.06706 3.858504,6.13227 1.929252,4.82313 4.134111,8.06151 2.273761,3.23839 6.33897,5.37435 4.06521,2.06705 10.679783,2.06705 9.09505,0 14.745,-4.20301 5.71885,-4.27191 5.71885,-10.61088 0,-5.02984 -3.10058,-8.13042 -3.03168,-3.16949 -7.92371,-4.82313 -4.82313,-1.65365 -12.95355,-3.514 -10.886493,-2.54937 -18.258991,-5.92556 -7.303596,-3.44509 -11.644413,-9.30175 -4.271915,-5.92556 -4.271915,-14.67609 0,-8.33713 4.547523,-14.8139 4.547522,-6.47677 13.160253,-9.92187 8.612732,-3.51399 20.257143,-3.51399 9.30175,0 16.05413,2.34266 6.82129,2.27376 11.29991,6.13227 4.47862,3.7896 6.54567,7.99261 2.06706,4.20302 2.06706,8.19932 0,3.6518 -2.61827,6.61458 -2.54937,2.89388 -6.40787,2.89388 -3.514,0 -5.37435,-1.72255 -1.79145,-1.79145 -3.9274,-5.78775 -2.75608,-5.71886 -6.61458,-8.88834 -3.85851,-3.23839 -12.40234,-3.23839 -7.923708,0 -12.81574,3.51399 -4.823129,3.4451 -4.823129,8.33713 0,3.03168 1.653644,5.23654 1.653645,2.20486 4.547522,3.7896 2.893878,1.58474 5.856658,2.48047 2.962775,0.89572 9.784065,2.61827 8.54383,1.99815 15.43401,4.40972 6.95909,2.41156 11.78222,5.85665 4.89203,3.4451 7.5792,8.75054 2.75608,5.23654 2.75608,12.88465 z m 5.85666,-58.97999 22.87542,67.73052 22.94432,-68.21283 q 1.79144,-5.37435 2.68717,-7.4414 0.89572,-2.13596 2.96278,-3.789604 2.06705,-1.722546 5.64995,-1.722546 2.61827,0 4.82313,1.309135 2.27376,1.309135 3.51399,3.513995 1.30914,2.13596 1.30914,4.34082 0,1.51584 -0.41341,3.30728 -0.41341,1.72255 -1.03353,3.4451 -0.62012,1.65364 -1.24023,3.44509 l -24.46016,66.00797 q -1.30914,3.78961 -2.61827,7.2347 -1.30914,3.37619 -3.03168,5.99446 -1.72255,2.54937 -4.61643,4.20301 -2.82497,1.65365 -6.95908,1.65365 -4.13411,0 -7.02799,-1.65365 -2.82498,-1.58474 -4.61643,-4.20301 -1.72254,-2.68717 -3.03168,-6.06336 -1.30913,-3.37619 -2.61827,-7.1658 l -24.04674,-65.45676 q -0.62012,-1.79144 -1.30914,-3.51399 -0.62012,-1.72255 -1.10243,-3.7207 -0.41341,-1.99815 -0.41341,-3.37619 0,-3.51399 2.82498,-6.40787 2.82497,-2.89388 7.09689,-2.89388 5.23654,0 7.37249,3.23839 2.20486,3.16948 4.47862,10.19747 z m 76.27436,-1.03353 v 35.41555 l 40.16978,-41.89232 q 2.89388,-3.03168 4.89203,-4.478621 2.06706,-1.446939 5.44325,-1.446939 4.40972,0 7.09689,2.61827 2.75607,2.54937 2.75607,6.27007 0,4.47862 -4.61642,8.88834 l -24.87357,23.56443 28.66317,41.0655 q 3.03168,4.27192 4.54752,7.51031 1.51584,3.16948 1.51584,6.20116 0,3.37619 -2.68717,5.85666 -2.61827,2.48047 -7.16579,2.48047 -4.27192,0 -6.95909,-1.79145 -2.68717,-1.86035 -4.54752,-4.89203 -1.86035,-3.03168 -3.30729,-5.51215 l -24.18455,-37.207 -16.74315,16.05413 v 20.87726 q 0,6.33897 -2.89388,9.43956 -2.89387,3.03168 -7.4414,3.03168 -2.61827,0 -5.02983,-1.37804 -2.41157,-1.37804 -3.7207,-3.7207 -0.96463,-1.92925 -1.17133,-4.47862 -0.20671,-2.54937 -0.20671,-7.3725 v -75.10302 q 0,-6.20116 2.68717,-9.30175 2.75608,-3.10058 7.4414,-3.10058 4.61643,0 7.4414,3.10058 2.89388,3.03168 2.89388,9.30175 z"
     id="text1"
stroke:#000000;stroke-width:0;stroke-linecap:round;stroke-linejoin:round"
     aria-label="6SVK" />
</svg>
